<svg xmlns="http://www.w3.org/2000/svg" xmlns:xlink="http://www.w3.org/1999/xlink" version="1.1" x="0px" y="0px" viewBox="0 0 100 125" style="enable-background:new 0 0 100 100;" xml:space="preserve"><g><path d="M50,19.2C33,19.2,19.2,33,19.2,50C19.2,67,33,80.8,50,80.8S80.8,67,80.8,50C80.8,33,67,19.2,50,19.2z M68.8,60.3   c0,0.9-0.7,1.6-1.6,1.6c-0.9,0-1.6-0.7-1.6-1.6V46.9l-4.3,2v9.6c0,4-5.7,7-13.3,7c-7.6,0-13.3-3-13.3-7v-9.6l-6.6-3   c-0.6-0.3-0.9-0.8-0.9-1.4s0.4-1.2,0.9-1.4L47.4,34c0.4-0.2,0.9-0.2,1.3,0l19.1,8.9c0.2,0.1,0.3,0.2,0.5,0.3c0,0,0,0,0,0   c0,0,0.1,0.1,0.1,0.1c0,0,0,0,0,0.1c0.1,0.1,0.2,0.3,0.3,0.5c0,0,0,0.1,0,0.1c0,0,0,0.1,0,0.1c0,0.1,0,0.2,0,0.3c0,0,0,0,0,0V60.3z   "/><path d="M48.1,54.8c-0.2,0-0.5,0-0.7-0.1L38,50.3v8.2c0,1.6,3.9,3.8,10.1,3.8c6.2,0,10.1-2.3,10.1-3.8v-8.2l-9.4,4.4   C48.5,54.8,48.3,54.8,48.1,54.8z"/><polygon points="63.5,44.4 48.1,37.2 32.7,44.4 48.1,51.5  "/></g><text x="0" y="115" fill="#000000" font-size="5px" font-weight="bold" font-family="'Helvetica Neue', Helvetica, Arial-Unicode, Arial, Sans-serif">Created by mikicon</text><text x="0" y="120" fill="#000000" font-size="5px" font-weight="bold" font-family="'Helvetica Neue', Helvetica, Arial-Unicode, Arial, Sans-serif">from the Noun Project</text></svg>